<?xml version="1.0" encoding="utf-8"?>
<!-- Generator: Adobe Illustrator 28.0.0, SVG Export Plug-In . SVG Version: 6.00 Build 0)  -->
<svg version="1.1" id="Layer_1" xmlns="http://www.w3.org/2000/svg" xmlns:xlink="http://www.w3.org/1999/xlink" x="0px" y="0px"
	 viewBox="0 0 400 400" style="enable-background:new 0 0 400 400;" xml:space="preserve">
<style type="text/css">
	.st0{fill:#FFFFFF;}
</style>
<path d="M278.4,400H121.6C54.5,400,0,345.5,0,278.4V121.6C0,54.5,54.5,0,121.6,0h156.7C345.5,0,400,54.5,400,121.6v156.7
	C400,345.5,345.5,400,278.4,400z"/>
<g>
	<polygon class="st0" points="128.4,202.7 152.5,244.6 115.2,309.4 66.8,309.4 	"/>
	<polygon class="st0" points="262.2,267.5 200.8,161 176.7,202.7 152.6,160.8 200.8,77.3 286.4,225.6 	"/>
	<polygon class="st0" points="334.8,309.4 286.4,309.4 310.6,267.5 	"/>
	<polygon class="st0" points="238.3,309.4 190,309.4 152.5,244.6 176.7,202.7 	"/>
</g>
</svg>
